<svg xmlns="http://www.w3.org/2000/svg" width="178.79999999999998" height="28">
  <g shape-rendering="crispEdges">
    <rect width="30" height="28" fill="#467fdb"/>
    <rect x="30" width="148.79999999999998" height="28" fill="#2D2D2D"/>
  </g>
    <g xmlns="http://www.w3.org/2000/svg" id="g2036" transform="scale(0.2) translate(5,4)">
    <path xmlns:sodipodi="http://inkscape.sourceforge.net/DTD/sodipodi-0.dtd" sodipodi:nodetypes="ccccccccsccccsscccsscccc" id="V1" d="M 95.868706,23.909104 L 95.868706,26.048056 C 93.047361,26.549147 90.911826,27.435559 89.462097,28.707293 C 87.385251,30.595808 84.936539,33.486281 83.330062,37.378719 L 50.644589,104.09089 L 48.469874,104.09089 L 15.65694,36.511576 C 14.128742,33.043075 12.051176,30.923395 11.424244,30.152531 C 10.44463,28.957874 9.2397119,28.023288 7.8095029,27.34877 C 6.3792686,26.674401 4.449448,26.24083 2.0200347,26.048056 L 2.0200347,23.909104 L 33.947916,23.909104 L 33.947916,26.048056 C 30.264562,26.394989 28.508523,27.011623 27.411399,27.89796 C 26.314212,28.784446 25.765634,29.921365 25.76566,31.308721 C 25.765634,33.235773 26.666868,36.241865 28.469368,40.327004 L 52.701762,86.285559 L 76.394453,40.905099 C 78.236045,36.434562 79.763939,33.332122 79.764002,31.597768 C 79.763939,30.48019 79.195764,29.410715 78.059498,28.389341 C 76.92308,27.368114 75.637251,26.645496 72.933606,26.221484 C 72.737621,26.183021 72.404568,26.125211 71.934408,26.048056 L 71.934408,23.909104 L 95.868706,23.909104 z " style="font-size:178.22499084px;font-style:normal;font-weight:normal;fill:#000000;fill-opacity:1;stroke:none;stroke-width:1px;stroke-linecap:butt;stroke-linejoin:miter;stroke-opacity:1;font-family:Times New Roman"/>
    <path xmlns:sodipodi="http://inkscape.sourceforge.net/DTD/sodipodi-0.dtd" sodipodi:nodetypes="ccccccccsccccsscccsscccc" id="V2" d="M 123.97997,23.909104 L 123.97997,26.048056 C 121.15863,26.549147 119.0231,27.435559 117.57337,28.707293 C 115.49652,30.595808 113.04781,33.486281 111.44133,37.378719 L 82.755857,104.09089 L 80.581143,104.09089 L 50.268209,36.511576 C 48.74001,33.043075 46.662445,30.923395 46.035513,30.152531 C 45.055898,28.957874 43.850981,28.023288 42.420772,27.34877 C 40.990537,26.674401 39.694911,26.24083 37.265497,26.048056 L 37.265497,23.909104 L 68.559185,23.909104 L 68.559185,26.048056 C 64.875831,26.394989 63.119792,27.011623 62.022668,27.89796 C 60.925481,28.784446 60.376903,29.921365 60.376928,31.308721 C 60.376903,33.235773 61.278137,36.241865 63.080637,40.327004 L 84.813031,86.285559 L 104.50572,40.905099 C 106.34731,36.434562 107.87521,33.332122 107.87527,31.597768 C 107.87521,30.48019 107.30703,29.410715 106.17077,28.389341 C 105.03435,27.368114 103.11433,26.645496 100.41068,26.221484 C 100.2147,26.183021 99.88164,26.125211 99.41148,26.048056 L 99.41148,23.909104 L 123.97997,23.909104 z " style="font-size:178.22499084px;font-style:normal;font-weight:normal;fill:#000000;fill-opacity:1;stroke:none;stroke-width:1px;stroke-linecap:butt;stroke-linejoin:miter;stroke-opacity:1;font-family:Times New Roman"/>
  </g>
  <g text-anchor="middle" font-family="DejaVu Sans,Verdana,Geneva,sans-serif" font-size="11">
      <text x="104.89999999999999" y="17.5" font-weight="bold" fill="#fff">Open Wiki</text>
  </g>
</svg>